{"title":"Officer Down 2012 DVDrip English Klam","uid":8031725,"size":1501374234,"categoryP":"video","categoryS":"movies","magnet":"?xt=urn:btih:44c93f520a16064cfc0c3a64ab2613e298c88dd6&amp;dn=Officer+Down+2012+DVDrip+English+Klam&amp;tr=udp%3A%2F%2Ftracker.openbittorrent.com%3A80&amp;tr=udp%3A%2F%2Fopen.demonii.com%3A1337&amp;tr=udp%3A%2F%2Ftracker.coppersurfer.tk%3A6969&amp;tr=udp%3A%2F%2Fexodus.desync.com%3A6969","seeders":0,"leechers":1,"uploader":"Klambake","files":-1,"time":1358434912,"description":"With: Stephen Dorff, Dominic Purcell and David Boreanaz\n\nEen dokter en een bewaker dromen 's nachts over elkaars dagelijkse bezigheden. Wanneer de bewaker de vrouw van de dokter vermoordt, en vervolgens aangereden wordt door een auto, belandt hij op de eerste hulp van het ziekenhuis waar de dokter werkt. Daar herkennen ze elkaar uit hun dromen...\n\nWhen a cop's crooked past comes back to get him, can he do the right thing, or will he succumb to the threats of his dangerous connections? \n &lt;a href=&quot;\nhttp://www.imdb.com/title/tt1925479&quot; rel=&quot;nofollow&quot; target=&quot;_NEW&quot;&gt;\nhttp://www.imdb.com/title/tt1925479&lt;/a&gt;\t\n\n------------------------ Dutch Friends ------------------------\n---------------------------------------------------------------\n- Bezoek ook eens mijn vrienden op: &lt;a href=&quot; http://www.Film-Test.nl&quot; rel=&quot;nofollow&quot; target=&quot;_NEW&quot;&gt; http://www.Film-Test.nl&lt;/a&gt; --\n----- voor mijn Nederlandse Sync. ondertitels ---- en meer ----\n------- http://www.Film-Test.nl ---- Over Films en meer -------\n---------------------------------------------------------------\n\nGeneral:\n\nComplete name                    : Officer DownOfficer Down.avi\nFormat                           : AVI\nFormat/Info                      : Audio Video Interleave\nFile size                        : 1.40 GiB\nDuration                         : 1h 37mn\nOverall bit rate                 : 2 054 Kbps\n\nVideo:\n\nFormat                           : MPEG-4 Visual\nFormat profile                   : Simple@L3\nFormat settings, BVOP            : No\nFormat settings, QPel            : No\nFormat settings, GMC             : No warppoints\nFormat settings, Matrix          : Default (H.263)\nCodec ID                         : XVID\nCodec ID/Hint                    : XviD\nDuration                         : 1h 37mn\nBit rate                         : 1 596 Kbps\nWidth                            : 720 pixels\nHeight                           : 304 pixels\nDisplay aspect ratio             : 2.35:1\nFrame rate                       : 23.976 fps\nColor space                      : YUV\nChroma subsampling               : 4:2:0\nBit depth                        : 8 bits\nScan type                        : Progressive\nCompression mode                 : Lossy\nBits/(Pixel*Frame)               : 0.304\nStream size                      : 1.09 GiB (78%)\nWriting library                  : XviD 1.1.2 (UTC 2006-11-01)\n\nAudio:\n\nFormat                           : AC-3\nFormat/Info                      : Audio Coding 3\nMode extension                   : CM (complete main)\nCodec ID                         : 2000\nDuration                         : 1h 37mn\nBit rate mode                    : Constant\nBit rate                         : 448 Kbps\nChannel(s)                       : 6 channels\nChannel positions                : Front: L C R, Side: L R, LFE\nSampling rate                    : 48.0 KHz\nBit depth                        : 16 bits\nCompression mode                 : Lossy\nStream size                      : 312 MiB (22%)\nAlignment                        : Aligned on interleaves\nInterleave, duration             : 32 ms (0.77 video frame)\nInterleave, preload duration     : 320 ms","torrent":{"xt":"urn:btih:44c93f520a16064cfc0c3a64ab2613e298c88dd6","amp;dn":"Officer+Down+2012+DVDrip+English+Klam","amp;tr":["udp%3A%2F%2Ftracker.openbittorrent.com%3A80","udp%3A%2F%2Fopen.demonii.com%3A1337","udp%3A%2F%2Ftracker.coppersurfer.tk%3A6969","udp%3A%2F%2Fexodus.desync.com%3A6969"],"infoHash":"44c93f520a16064cfc0c3a64ab2613e298c88dd6","infoHashBuffer":{"type":"Buffer","data":[68,201,63,82,10,22,6,76,252,12,58,100,171,38,19,226,152,200,141,214]},"announce":[],"urlList":[]}}